<mxfile host="65bd71144e" modified="2020-11-04T00:49:54.359Z" agent="5.0 (Windows NT 10.0; Win64; x64) AppleWebKit/537.36 (KHTML, like Gecko) Code/1.50.1 Chrome/83.0.4103.122 Electron/9.2.1 Safari/537.36" etag="O1896EtAtiGesowon0CG" version="13.6.5">
    <diagram id="BD4IVBMlHvsRVazpsT13" name="Page-1">
        <mxGraphModel dx="1516" dy="587" grid="1" gridSize="10" guides="1" tooltips="1" connect="1" arrows="1" fold="1" page="1" pageScale="1" pageWidth="827" pageHeight="1169" math="0" shadow="0">
            <root>
                <mxCell id="0"/>
                <mxCell id="1" parent="0"/>
                <mxCell id="3" value="Home.vue&lt;br&gt;&lt;br&gt;&lt;font style=&quot;font-size: 10px&quot;&gt;FormularioPublicacion.vue&lt;/font&gt;" style="whiteSpace=wrap;html=1;fillColor=#1ba1e2;strokeColor=#006EAF;fontColor=#ffffff;verticalAlign=top;" parent="1" vertex="1">
                    <mxGeometry x="60" y="50" width="120" height="150" as="geometry"/>
                </mxCell>
                <mxCell id="4" value="Registro.vue&lt;br&gt;&lt;br&gt;&lt;font style=&quot;font-size: 10px&quot;&gt;FormularioUsuario.vue&lt;/font&gt;" style="whiteSpace=wrap;html=1;fillColor=#60a917;strokeColor=#2D7600;fontColor=#ffffff;verticalAlign=top;" parent="1" vertex="1">
                    <mxGeometry x="-70" y="50" width="120" height="150" as="geometry"/>
                </mxCell>
                <mxCell id="5" value="Login.vue&lt;br&gt;&lt;br&gt;&lt;font style=&quot;font-size: 10px&quot;&gt;FormularioLogin.vue&lt;/font&gt;" style="whiteSpace=wrap;html=1;fillColor=#60a917;strokeColor=#2D7600;fontColor=#ffffff;verticalAlign=top;" parent="1" vertex="1">
                    <mxGeometry x="-200" y="50" width="120" height="150" as="geometry"/>
                </mxCell>
                <mxCell id="6" value="Feed.vue&lt;br&gt;&lt;br&gt;&lt;font style=&quot;font-size: 10px&quot;&gt;FormularioPublicacion.vue&lt;br&gt;&lt;/font&gt;" style="whiteSpace=wrap;html=1;fillColor=#1ba1e2;strokeColor=#006EAF;fontColor=#ffffff;verticalAlign=top;" parent="1" vertex="1">
                    <mxGeometry x="190" y="50" width="120" height="150" as="geometry"/>
                </mxCell>
                <mxCell id="7" value="Perfil.vue&lt;br&gt;&lt;br&gt;&lt;font style=&quot;font-size: 10px&quot;&gt;FormularioUsuario.vue&lt;br&gt;BotonEliminarCuenta.vue&lt;/font&gt;" style="whiteSpace=wrap;html=1;fillColor=#1ba1e2;strokeColor=#006EAF;fontColor=#ffffff;verticalAlign=top;" parent="1" vertex="1">
                    <mxGeometry x="320" y="50" width="120" height="150" as="geometry"/>
                </mxCell>
                <mxCell id="13" value="Header.vue&lt;br&gt;Título / Logo - Imagen de Portada - Menu.vue - BotonCerrarSesion.vue" style="whiteSpace=wrap;html=1;fillColor=#a20025;strokeColor=#6F0000;fontColor=#ffffff;" parent="1" vertex="1">
                    <mxGeometry x="-200" y="210" width="640" height="50" as="geometry"/>
                </mxCell>
                <mxCell id="15" value="Footer.vue&lt;br&gt;Nombre / Logo - Derechos - Póliticas de Privacidad - Términos y Condiciones - Legales -&amp;nbsp;Menu.vue" style="whiteSpace=wrap;html=1;fillColor=#a20025;strokeColor=#6F0000;fontColor=#ffffff;" parent="1" vertex="1">
                    <mxGeometry x="-200" y="370" width="640" height="50" as="geometry"/>
                </mxCell>
                <mxCell id="17" value="Vistas Privadas&lt;br&gt;Home - Feed - Perfil" style="whiteSpace=wrap;html=1;fillColor=#1ba1e2;strokeColor=#006EAF;fontColor=#ffffff;" parent="1" vertex="1">
                    <mxGeometry x="-200" y="320" width="640" height="40" as="geometry"/>
                </mxCell>
                <mxCell id="23" value="DOCTAWEETS" style="whiteSpace=wrap;html=1;fillColor=#d80073;strokeColor=#A50040;fontColor=#ffffff;" parent="1" vertex="1">
                    <mxGeometry x="-200" width="640" height="40" as="geometry"/>
                </mxCell>
                <mxCell id="24" value="Vistas Públicas&lt;br&gt;Login - Registro" style="whiteSpace=wrap;html=1;fillColor=#60a917;strokeColor=#2D7600;fontColor=#ffffff;" parent="1" vertex="1">
                    <mxGeometry x="-200" y="270" width="640" height="40" as="geometry"/>
                </mxCell>
                <mxCell id="26" value="&lt;span style=&quot;color: rgb(255 , 255 , 255)&quot;&gt;ListaPosts.vue&lt;/span&gt;" style="rounded=0;whiteSpace=wrap;html=1;verticalAlign=top;fillColor=#d80073;strokeColor=#A50040;fontColor=#ffffff;" vertex="1" parent="1">
                    <mxGeometry x="60" y="110" width="120" height="90" as="geometry"/>
                </mxCell>
                <mxCell id="27" value="Post.vue" style="rounded=0;whiteSpace=wrap;html=1;verticalAlign=top;fillColor=#fa6800;strokeColor=#C73500;fontColor=#ffffff;" vertex="1" parent="1">
                    <mxGeometry x="65" y="137" width="110" height="60" as="geometry"/>
                </mxCell>
                <mxCell id="28" value="&lt;span style=&quot;font-size: 9px;&quot;&gt;BotonEliminarPost.vue&lt;/span&gt;&lt;br style=&quot;font-size: 9px;&quot;&gt;&lt;span style=&quot;font-size: 9px;&quot;&gt;BotonLike.vue&lt;br style=&quot;font-size: 9px;&quot;&gt;&lt;/span&gt;" style="rounded=0;whiteSpace=wrap;html=1;fillColor=#f0a30a;strokeColor=#BD7000;fontColor=#ffffff;fontSize=9;" vertex="1" parent="1">
                    <mxGeometry x="70" y="161" width="100" height="30" as="geometry"/>
                </mxCell>
                <mxCell id="29" value="&lt;span style=&quot;color: rgb(255 , 255 , 255)&quot;&gt;ListaPosts.vue&lt;/span&gt;" style="rounded=0;whiteSpace=wrap;html=1;verticalAlign=top;fillColor=#d80073;strokeColor=#A50040;fontColor=#ffffff;" vertex="1" parent="1">
                    <mxGeometry x="190" y="110" width="120" height="90" as="geometry"/>
                </mxCell>
                <mxCell id="30" value="Post.vue" style="rounded=0;whiteSpace=wrap;html=1;verticalAlign=top;fillColor=#fa6800;strokeColor=#C73500;fontColor=#ffffff;" vertex="1" parent="1">
                    <mxGeometry x="195" y="137" width="110" height="60" as="geometry"/>
                </mxCell>
                <mxCell id="31" value="&lt;span style=&quot;font-size: 9px;&quot;&gt;BotonEliminarPost.vue&lt;/span&gt;&lt;br style=&quot;font-size: 9px;&quot;&gt;&lt;span style=&quot;font-size: 9px;&quot;&gt;BotonLike.vue&lt;br style=&quot;font-size: 9px;&quot;&gt;&lt;/span&gt;" style="rounded=0;whiteSpace=wrap;html=1;fillColor=#f0a30a;strokeColor=#BD7000;fontColor=#ffffff;fontSize=9;" vertex="1" parent="1">
                    <mxGeometry x="200" y="161" width="100" height="30" as="geometry"/>
                </mxCell>
            </root>
        </mxGraphModel>
    </diagram>
</mxfile>